<svg xmlns="http://www.w3.org/2000/svg" width="452.5" height="90.406" viewBox="0 0 452.5 90.406">
  <metadata><?xpacket begin="﻿" id="W5M0MpCehiHzreSzNTczkc9d"?>
<x:xmpmeta xmlns:x="adobe:ns:meta/" x:xmptk="Adobe XMP Core 5.6-c138 79.159824, 2016/09/14-01:09:01        ">
   <rdf:RDF xmlns:rdf="http://www.w3.org/1999/02/22-rdf-syntax-ns#">
      <rdf:Description rdf:about=""/>
   </rdf:RDF>
</x:xmpmeta>
                                                                                                    
                                                                                                    
                                                                                                    
                                                                                                    
                                                                                                    
                                                                                                    
                                                                                                    
                                                                                                    
                                                                                                    
                                                                                                    
                                                                                                    
                                                                                                    
                                                                                                    
                                                                                                    
                                                                                                    
                                                                                                    
                                                                                                    
                                                                                                    
                                                                                                    
                                                                                                    
                           
<?xpacket end="w"?></metadata>
<defs>
    <style>
      .cls-1 {
        fill: #191919;
        fill-rule: evenodd;
      }
    </style>
  </defs>
  <path id="_HÅR_SÅN_T" data-name=" HÅR &amp; SÅN’T" class="cls-1" d="M29.056,87.8q1-3.7,1.4-5t1.1-3.1l1.2-3.5a2.559,2.559,0,0,1,.6-1.3,2.713,2.713,0,0,1,1.3-.2l1.8-.4,1.9-.6a0.978,0.978,0,0,1,.9,1l-0.6,2.1-1.9,6.2q-0.5,2-.8,2.9t-0.9,2.85a11.041,11.041,0,0,0-.6,2.85,4.014,4.014,0,0,0,2.95,4,19.012,19.012,0,0,1,4.45,2.2,15.256,15.256,0,0,0,1.85,1.25,3.56,3.56,0,0,0,1.25.15q4.6,0,4.6-4.4l1-5.1,1.8-8a54.474,54.474,0,0,1,2.15-6q1.448-3.5,4.5-10.35t4.2-9.3q1.148-2.449,1.8-3.65a5.96,5.96,0,0,0,.75-2.2,3.225,3.225,0,0,0-.35-1.55q-0.45-1.148-1.3-3.45a24.393,24.393,0,0,0-1.2-2.9,15.539,15.539,0,0,0-2.45-2.45Q58.356,38,56.956,38q-2,0-3.6,3.8l-2,4.1-2.5,5.1-2.2,4.7a11.032,11.032,0,0,0-1.3,3,1.755,1.755,0,0,1-1.6,1.4l-1.9.1-1.5.2q-1.3,0-1.3-.8l0.4-.8,0.8-1.6,1.1-1.9,0.6-1.1,1.1-2.2,1-2,0.5-.9q0.6-1.4.95-2.15a3.861,3.861,0,0,0,.35-1.65,1.992,1.992,0,0,0-.3-1.2,25.473,25.473,0,0,0-2.2-2.1l-0.9-.9a22.786,22.786,0,0,0-3.5-3.2,5.008,5.008,0,0,0-2.6-.6,4.358,4.358,0,0,0-3,.9,11.245,11.245,0,0,0-2.2,3.6l-2.2,4.8q-1.2,2.5-1.7,3.7t-0.9,2.2l-2.8,6.9-0.6,1.3a3.81,3.81,0,0,1-2.7,2.45q-2.2.75-2.2,2.35l0.2,1.2,0.2,1.3,0.4,2.8a4.626,4.626,0,0,0-.25.8,4.946,4.946,0,0,1-.35,1l-1.4,3.8-1.7,4.5q-2.3,6.1-2.3,7.1l0.4,1.4,1.7,3.5a9.944,9.944,0,0,0,1.4,2.5,4.817,4.817,0,0,0,2.4.8q1.9,0.3,2.2.4a4.84,4.84,0,0,1,1.15.85,8.141,8.141,0,0,0,1.05.85,1.381,1.381,0,0,0,.6.1,2.666,2.666,0,0,0,2.25-.85,9.147,9.147,0,0,0,1.15-3.45l0.5-1.5,0.5-1.6Zm34.6-12.7,0.2,2.5,0.1,0.8a2.226,2.226,0,0,1-.25,1q-0.248.5-.95,1.65a25.581,25.581,0,0,0-1.55,3.15,8.975,8.975,0,0,0-.85,2.7,3.1,3.1,0,0,0,.8,1.9,14.811,14.811,0,0,1,1.65,2.75,12.066,12.066,0,0,0,1.5,2.5,4.472,4.472,0,0,0,2.1,1.2,22.487,22.487,0,0,1,2.75,1.05h1a2.525,2.525,0,0,0,2.15-1,17.778,17.778,0,0,0,1.85-4q1.1-3,1.45-3.75t0.85-1.85l0.5-1.2a9.912,9.912,0,0,1,1.1-2.1,3.137,3.137,0,0,1,1.5-.5l1.6-.4a2.567,2.567,0,0,1,1.6-.4q2.5,0,2.5,1.006l-0.4,1.608-0.3.6a8.537,8.537,0,0,1-.6,1.911l-1,2.313q-0.8,1.509-1,1.963a3.167,3.167,0,0,0-.2,1.256,2.684,2.684,0,0,0,1.8,2.664,8.425,8.425,0,0,1,3,2.063,12.927,12.927,0,0,0,2.25,2.011,3.97,3.97,0,0,0,2.25.7h0.8a1.53,1.53,0,0,1,1.1-.5q2.4,0,3.2-3.05t1.1-4q0.3-.949,2.4-7.95l3.5-15.2q1.3-6,1.7-8.1t0.7-5.1l0.3-1.9,0.1-.8a4.014,4.014,0,0,0-1.8-3.65,8.957,8.957,0,0,1-2.3-1.85l0.5-.7a4.593,4.593,0,0,0,1.4-2.8q0-1.7-5.6-4.7l-2.1-1.2q-1.3-1-1.45-1.1a1.7,1.7,0,0,0-.75-0.1,3.869,3.869,0,0,0-2.6,1.2q-1.3,1.2-6.85,7.7t-6.3,8.05a12.461,12.461,0,0,1-.9,1.7q-0.15.15-1.35,1.65a19.228,19.228,0,0,0-2.45,4.5q-1.251,3-2.2,3.6a1.8,1.8,0,0,0-.95.9l-0.5,1.2-0.4.9-0.2.4-0.2.5q-0.5,1.3-3,2.1t-2.5,2.6v0.4l0.1,0.4Zm20.2-6.6a2.526,2.526,0,0,0,.3-0.7q0.2-.6,1.8-3.7l1.2-2.4a36.843,36.843,0,0,1,2.85-4.25Q91.254,55.9,91.855,56a0.928,0.928,0,0,1,.7,1l-0.2,1-0.1.4q-0.4,2-.6,2.95t-1.15,4.1A13.635,13.635,0,0,1,89.155,69a2.72,2.72,0,0,1-1.8.4l-1.8.1h-0.4q-1.3,0-1.3-1h0Zm19.1-59.4a13.258,13.258,0,0,0-4.4,2.6,16.509,16.509,0,0,0-3.6,5.35,15.776,15.776,0,0,0-1.7,6.55,9.371,9.371,0,0,0,2.8,6.9,9.494,9.494,0,0,0,7,2.8,10.792,10.792,0,0,0,8.4-4.2,14.593,14.593,0,0,0,3.6-9.8,13.606,13.606,0,0,0-1.25-6.35,3.818,3.818,0,0,0-3.45-2.35l-1.7.4-1.2.3a1.89,1.89,0,0,1-1.7-.75q-0.5-.75-0.9-1.25a1.149,1.149,0,0,0-.9-0.5Zm2.3,13.5-0.8,1.8q-1.3,1.9-1.85,2.55a1.48,1.48,0,0,1-1.05.65,0.706,0.706,0,0,1-.8-0.8l0.3-1.5,0.7-2.2a8.764,8.764,0,0,1,.153-2.2,9.686,9.686,0,0,1,1.175-1.7l1.43-2.1a4.1,4.1,0,0,1,.714-0.85,7.479,7.479,0,0,1,.612-0.45,0.782,0.782,0,0,1,.716.7v2.6Zm0.8,62.48a6.24,6.24,0,0,0-.5,2.1,3.5,3.5,0,0,0,.2,1.353q0.2,0.45,1.5,2.755a12.2,12.2,0,0,0,1.8,2.7,4.589,4.589,0,0,0,1.95.65c0.965,0.167,1.65.3,2.05,0.4a5.184,5.184,0,0,1,1.5.751q0.9,0.6,1.6,1.1a2.183,2.183,0,0,0,1.2.5q1.1,0,2.15-2.55t3.85-12.05l2-6.7,0.6-1.6a3.985,3.985,0,0,1,.4,1.759,41.927,41.927,0,0,1,.2,4.673,31.026,31.026,0,0,0,.65,7.036,17.414,17.414,0,0,0,2.05,5.025,18.115,18.115,0,0,0,3.65,4.272q2.25,1.959,3.45,1.959a3.9,3.9,0,0,0,1.1-.3q0.8-.3,2.7-1l1.5-.7,2.2-1.1a6.836,6.836,0,0,0,2.2-1.2,3.463,3.463,0,0,0,.3-1.806,3.258,3.258,0,0,0-.7-2.208,33.917,33.917,0,0,1-2.5-3.864q-0.2-.551-1.25-5.167t-1.25-5.822a15.766,15.766,0,0,1-.2-2.609,1.956,1.956,0,0,1,.4-1.4,19.315,19.315,0,0,1,3.3-1.806q2.9-1.406,7.8-6.625t4.9-10.637a16.051,16.051,0,0,0-1.4-6.222,22.8,22.8,0,0,0-4.75-6.775q-3.353-3.462-11.55-3.462a64.576,64.576,0,0,0-7.3.5l-5.6.7-2.1.6a9.891,9.891,0,0,0-1.95.25,3.449,3.449,0,0,0-1.05.652l-1,.4a1.1,1.1,0,0,0-.75.6,5.474,5.474,0,0,0-.15,1.6,14.36,14.36,0,0,0,.7,4.658,10.817,10.817,0,0,1,.7,2.853,6.955,6.955,0,0,1-.9,2.6q-0.9,1.8-1.85,4.008t-2.15,5.008l-1.4,3.5-4.3,10.017q-1.2,2.7-1.55,3.756t-0.55,1.552l-0.7,2Q106.556,83.778,106.055,85.079Zm36.7-33.162q0,1.113-1.95,2.981a15.746,15.746,0,0,1-4.05,2.88l-2.8,1.617-1,.5a1.524,1.524,0,0,1-.4-0.3,0.679,0.679,0,0,1-.2-0.5,7.6,7.6,0,0,1,1.1-2.425l1.1-2.223q1.3-3.534,1.75-3.889t4.05-.355q2.6,0,2.4,1.717h0Zm87.5,28.683h1.9a11.315,11.315,0,0,0,3.05-.2,1.89,1.89,0,0,0,.35-1.5l0.7-1.6q1.3-2.9,1.4-3.15a2.163,2.163,0,0,0,.1-0.75q0-4.8-6.3-4.8a57.163,57.163,0,0,0-8,.5,71.512,71.512,0,0,0-8.45,1.85q-4.95,1.35-4.95,3.55a7.448,7.448,0,0,0,.35,2.6q0.35,0.9.85,2l-0.3.5-0.5.9a5.016,5.016,0,0,1-1.15,1q-0.75.5-2.7,1.7t-2.2,1.3a6.4,6.4,0,0,1-1.55.1c-0.935,0-1.4-.333-1.4-1a11.327,11.327,0,0,1,.75-2.15q0.75-1.849,1.4-3.5t1.2-2.8a25.975,25.975,0,0,1,2.15-3.4,15.54,15.54,0,0,1,4.05-3.9,8.4,8.4,0,0,1,4.65-1.65q2.5,0,2.5-3.2a2.307,2.307,0,0,0-1.5-2.2,6.444,6.444,0,0,1-2.15-1.45,3.348,3.348,0,0,1-.65-2.25,9.017,9.017,0,0,1,.95-2.5,7.039,7.039,0,0,1,2.5-3q1.55-1,2.05-1.25l0.7-.35a0.4,0.4,0,0,0,.3.1,0.864,0.864,0,0,1,.3.6v0.4a18.244,18.244,0,0,0-1.271,2.45,5.429,5.429,0,0,0-.529,1.85q0,1.2,2.35,2.65a7.853,7.853,0,0,0,3.65,1.45,8.533,8.533,0,0,0,6.55-3.05,10.464,10.464,0,0,0,2.75-7.25,10.014,10.014,0,0,0-3.95-8.3,13.083,13.083,0,0,0-8.15-3.1q-5.2,0-14.3,5.2t-9.1,11.839a9.471,9.471,0,0,0,1,4.658l0.5,1q-0.3.3-.65,0.6t-3.55,2.111q-3.2,1.809-6.5,7.388a23.735,23.735,0,0,0-3.3,12.313,12.368,12.368,0,0,0,1,5.378,24.045,24.045,0,0,0,4.15,5.376,23.617,23.617,0,0,0,4.9,4.272,9.212,9.212,0,0,0,4.45.955,26.76,26.76,0,0,0,6.55-1,27.1,27.1,0,0,0,6.65-2.6q2.8-1.6,5.65-3.45a26.383,26.383,0,0,0,3.8-2.8,6.646,6.646,0,0,0,1.45-2.15,4.1,4.1,0,0,0,.4-2l-0.3-1.4-0.4-1-0.2-.6a1.076,1.076,0,0,1,.45-0.4,2.834,2.834,0,0,1,.85-0.3h2.7Zm37.1,6.8q0,1.8,3.7,6.7t7.7,4.9a26.026,26.026,0,0,0,6.75-1.055,87.632,87.632,0,0,0,12.2-4.972q8.347-3.916,8.35-16.27a14.335,14.335,0,0,0-1.4-6.628A23.25,23.25,0,0,0,299.1,63.8q-4.152-3.565-4.9-4.319a2.056,2.056,0,0,1-.75-1.255,2.689,2.689,0,0,1,1.1-1.708,7.512,7.512,0,0,1,1.9-1.356q0.8-.352,2.2-1.055l1.9-1.1h0.5l0.5,0.5-0.6,1.4q-1,1.6-1.2,2a1.591,1.591,0,0,0-.2.7q0,1.5,3.45,2.8a20.659,20.659,0,0,0,7.35,1.3,4.039,4.039,0,0,0,2.05-.4,4.449,4.449,0,0,0,1.35-1.8c0.465-.933.8-1.566,1-1.9s0.75-1.1,1.65-2.3a11.934,11.934,0,0,0,1.75-2.95,7.756,7.756,0,0,0,.4-2.55,10.263,10.263,0,0,0-1.3-4.55,17.55,17.55,0,0,0-3.4-4.6q-2.1-2.048-6.7-2.05A33.272,33.272,0,0,0,294,41.3a29.43,29.43,0,0,0-10.6,7.45q-4.253,4.751-4.25,13.65a10.819,10.819,0,0,0,1.65,6.4,40.9,40.9,0,0,0,3.65,4.4,28.98,28.98,0,0,0,3.4,3.15,11.891,11.891,0,0,1,1.85,1.6,1.923,1.923,0,0,1,.45,1.25q0,1.3-2.05,2.55a16.543,16.543,0,0,1-3.3,1.65,6.912,6.912,0,0,1-1.95.4q-1.4,0-1.4-2.9a2.848,2.848,0,0,0-.8-2.1,2.6,2.6,0,0,0-1.9-.8h-0.7l-0.6.1-1.4.1h-0.8l-1,.1-0.3.1-0.7.2a3.844,3.844,0,0,0-1,.4,6.378,6.378,0,0,0-1.1,1.6l-1.6,2.4q-2.2,3-2.2,4.4h0Zm47.3-12.3,0.2,2.5,0.1,0.8a2.222,2.222,0,0,1-.25,1q-0.249.5-.95,1.65a25.5,25.5,0,0,0-1.55,3.15,8.963,8.963,0,0,0-.85,2.7,3.1,3.1,0,0,0,.8,1.9,14.854,14.854,0,0,1,1.65,2.75,12.07,12.07,0,0,0,1.5,2.5,4.474,4.474,0,0,0,2.1,1.2,22.456,22.456,0,0,1,2.75,1.05h1a2.525,2.525,0,0,0,2.15-1,17.764,17.764,0,0,0,1.85-4q1.1-3,1.45-3.75t0.85-1.85l0.5-1.2a9.922,9.922,0,0,1,1.1-2.1,3.137,3.137,0,0,1,1.5-.5l1.6-.4a2.568,2.568,0,0,1,1.6-.4q2.5,0,2.5,1.006l-0.4,1.608-0.3.6a8.516,8.516,0,0,1-.6,1.911l-1,2.313q-0.8,1.509-1,1.963a3.172,3.172,0,0,0-.2,1.256,2.684,2.684,0,0,0,1.8,2.664,8.425,8.425,0,0,1,3,2.063A12.927,12.927,0,0,0,339.8,98.5a3.97,3.97,0,0,0,2.25.7h0.8a1.531,1.531,0,0,1,1.1-.5q2.4,0,3.2-3.05t1.1-4q0.3-.949,2.4-7.95l3.5-15.2q1.3-6,1.7-8.1t0.7-5.1l0.3-1.9,0.1-.8a4.014,4.014,0,0,0-1.8-3.65,8.957,8.957,0,0,1-2.3-1.85l0.5-.7a4.593,4.593,0,0,0,1.4-2.8q0-1.7-5.6-4.7l-2.1-1.2q-1.3-1-1.45-1.1a1.7,1.7,0,0,0-.75-0.1,3.87,3.87,0,0,0-2.6,1.2q-1.3,1.2-6.85,7.7t-6.3,8.05a12.461,12.461,0,0,1-.9,1.7q-0.15.15-1.35,1.65a19.235,19.235,0,0,0-2.45,4.5q-1.251,3-2.2,3.6a1.8,1.8,0,0,0-.95.9l-0.5,1.2-0.4.9-0.2.4-0.2.5q-0.5,1.3-3,2.1t-2.5,2.6v0.4l0.1,0.4Zm20.2-6.6a2.507,2.507,0,0,0,.3-0.7q0.2-.6,1.8-3.7l1.2-2.4a36.921,36.921,0,0,1,2.85-4.25q1.25-1.549,1.85-1.45a0.928,0.928,0,0,1,.7,1l-0.2,1-0.1.4q-0.4,2-.6,2.95t-1.15,4.1A13.611,13.611,0,0,1,340.15,69a2.719,2.719,0,0,1-1.8.4l-1.8.1h-0.4q-1.3,0-1.3-1h0Zm19.1-59.4a13.261,13.261,0,0,0-4.4,2.6,16.515,16.515,0,0,0-3.6,5.35,15.78,15.78,0,0,0-1.7,6.55,9.372,9.372,0,0,0,2.8,6.9,9.494,9.494,0,0,0,7,2.8,10.792,10.792,0,0,0,8.4-4.2,14.593,14.593,0,0,0,3.6-9.8,13.606,13.606,0,0,0-1.25-6.35,3.818,3.818,0,0,0-3.45-2.35l-1.7.4-1.2.3a1.89,1.89,0,0,1-1.7-.75q-0.5-.75-0.9-1.25a1.149,1.149,0,0,0-.9-0.5Zm2.3,13.5-0.8,1.8q-1.3,1.9-1.85,2.55a1.48,1.48,0,0,1-1.05.65,0.706,0.706,0,0,1-.8-0.8l0.3-1.5,0.7-2.2a8.764,8.764,0,0,1,.153-2.2,9.686,9.686,0,0,1,1.175-1.7l1.43-2.1a4.1,4.1,0,0,1,.714-0.85,7.479,7.479,0,0,1,.612-0.45,0.783,0.783,0,0,1,.716.7v2.6Zm19.4,52.3q0.2-.8.8-2.9t0.9-2l0.1,0.6v0.5l0.2,1.9a13.138,13.138,0,0,0,.4,2V86.6l-0.1,4.3a5.32,5.32,0,0,0,.8,3.3,13.476,13.476,0,0,0,3.8,2.6q3,1.6,3.75,1.9a4.692,4.692,0,0,0,1.75.3,2.576,2.576,0,0,0,2.65-2.3q0.549-2.3,1.35-4.85t2.1-6.7q1.3-4.148,2-6.1t1.7-4.65l5.7-14.3,1.2-2.2,1.2-2.2,1.1-2.3,0.5-.9q0.4-.9,1-2.1a4.834,4.834,0,0,0,.6-2.1,2.839,2.839,0,0,0-.45-1.65,49.492,49.492,0,0,0-4.45-4.2q-4-3.548-5.4-3.55a2.4,2.4,0,0,0-1.85,1.05,40.649,40.649,0,0,0-3.25,6.65q-2.4,5.6-3.65,9.6t-1.8,5.3q-0.55,1.3-.75,1.8a12.681,12.681,0,0,1-.4-2.3q-0.1-1.2-.1-3.2,0-.8-0.25-4.1t-0.25-7.1a8.016,8.016,0,0,0-.7-4.05,6.413,6.413,0,0,0-3.1-1.95l-2.6-1.1a10.335,10.335,0,0,0-3.2-1.3q-3.3,0-4.25,3.644t-1.45,5.392q-0.5,1.749-3,8.686t-5.3,13.128q-2.8,6.19-3.65,8.136t-2.1,5.291a16.28,16.28,0,0,0-1.25,4.642,4.825,4.825,0,0,0,2.15,4.194,29.432,29.432,0,0,1,2.5,1.847,15.467,15.467,0,0,1,1.5,2.8q1.149,2.447,4.45,2.445,2.3,0,2.95-3.25t0.95-4.2q0.3-.949,1-2.85l0.7-2.3,1.6-4.6Zm41-20.5a8.081,8.081,0,0,0-.7,2.2,1.283,1.283,0,0,0,1.5,1.4,6.032,6.032,0,0,0,2.35-.9q1.65-.9,3.35-1.9t2.15-1.35a20.381,20.381,0,0,0,1.9-2,11.753,11.753,0,0,0,1.85-2.55,6.317,6.317,0,0,0,.4-2.5,7.276,7.276,0,0,0-.4-2.85,9.291,9.291,0,0,0-1.8-2.25l-2-1.9a20.6,20.6,0,0,0-1.65-1.55,7.163,7.163,0,0,0-1.45-.65l-3-.8q-1.2.1-2.4,3.5l-1.2,3.3a12.833,12.833,0,0,0-1.2,4.3,3.943,3.943,0,0,0,.6,2.45,7.436,7.436,0,0,0,2.8,1.65,14.089,14.089,0,0,1-1.1,2.4h0Zm39.6-2.3h3.8a4.452,4.452,0,0,0,2.6-.591,6.791,6.791,0,0,0,1.7-2.464l1-2.463a4.466,4.466,0,0,0-.8-1.477q-0.8-1.181-2.4-3.3a12.305,12.305,0,0,0-2.3-2.561,5.013,5.013,0,0,0-2.5-.444h-1.6l-3.4.2-4.4.1-4.4.3-6.3.7a17.741,17.741,0,0,0-5.75,1.611,3.082,3.082,0,0,0-1.45,2.817l0.3,2.314,0.6,3.42a7.241,7.241,0,0,0,.7,3.823,2.489,2.489,0,0,0,2.2,1.006,6.075,6.075,0,0,0,2.2-.6l1.4-.5,1-.4a0.808,0.808,0,0,1,.8,1,20.2,20.2,0,0,1-1.8,4.309q-1.8,3.708-2.3,5.061t-2.6,7.066l-1,2.606-2.4,5.412q-0.5,1.3-.95,2.356a29.094,29.094,0,0,0-1,2.856q-0.551,1.8-1.25,3.708v0.9a7.556,7.556,0,0,0,1.95,4.561,22.472,22.472,0,0,0,2.6,2.956,11.154,11.154,0,0,0,2.35,1.2q1.7,0.7,2.85,1.153a5.538,5.538,0,0,0,1.95.45q2.4,0,3.3-5.022,2.5-7.13,2.8-7.983t2.8-9.291l0.9-2.711q2.2-6.024,3.65-9.489t2.45-5.474a7.858,7.858,0,0,0,1-2.812l-0.7-2.912-0.1-.6-0.1-.3a9.142,9.142,0,0,1,2.6-.5h0Z" transform="translate(-12.844 -8.813)"/>
</svg>
